<svg width="7" height="22" viewBox="0 0 7 22" fill="none" xmlns="http://www.w3.org/2000/svg">
<path d="M5.5 21.6227C5.7942 21.6227 6.0327 21.3842 6.0327 21.09C6.0327 20.7958 5.7942 20.5573 5.5 20.5573V21.6227ZM1 0H0.4673V17.5624H1H1.5327V0H1ZM1 17.5624H0.4673C0.4673 19.1951 0.858507 20.2744 1.65001 20.9126C2.41544 21.5297 3.42969 21.6227 4.375 21.6227V21.09V20.5573C3.44531 20.5573 2.77206 20.4487 2.31874 20.0832C1.89149 19.7387 1.5327 19.0542 1.5327 17.5624H1ZM4.375 21.09V21.6227H5.5V21.09V20.5573H4.375V21.09Z" fill="black"/>
</svg>
